<svg width="150" height="153" viewBox="0 0 150 153" fill="none" xmlns="http://www.w3.org/2000/svg">
<g id="Group 63">
<path id="Vector" d="M62.8476 31.1098L44.8194 10.2705L52.0275 34.2715L40.0715 26.9953L52.6557 41.2598L19.9808 39.6423L47.5781 49.829L28.5028 52.7918L49.4311 56.6864L38.1347 65.2033L51.8391 62.7953L28.6861 80.0227L57.7333 69.4067L55.5662 87.0686L70.5479 65.2033L85.1841 92.6226L81.2842 70.0297L101.673 85.027L86.8539 64.0935L101.113 67.2448L89.4451 60.5758L121.481 67.0354L90.7433 51.7554L109.824 47.421L88.8902 44.4582L113.713 25.9326L86.8592 34.706L98.522 18.5256L80.3681 29.6388L84.1424 0L70.7049 27.1314L66.6637 11.4797L62.8476 31.1098Z" fill="#231F20"/>
<path id="Vector_2" d="M70.4851 68.7943C81.0114 68.7943 89.5446 60.2611 89.5446 49.7348C89.5446 39.2085 81.0114 30.6753 70.4851 30.6753C59.9588 30.6753 51.4256 39.2085 51.4256 49.7348C51.4256 60.2611 59.9588 68.7943 70.4851 68.7943Z" fill="white"/>
<path id="Vector_3" d="M60.6753 50.5357C61.1097 52.1637 62.6854 52.5458 63.9312 52.1114C64.7426 51.8287 65.6116 50.5933 65.287 48.9077C64.9311 47.0599 63.2245 46.8453 62.3556 47.0075C61.2144 47.2222 60.157 48.5884 60.6753 50.5357Z" fill="#FC5003"/>
<path id="Vector_4" d="M68.386 43.537C68.4959 44.6782 69.5795 45.8141 71.2598 45.8717C72.9402 45.9293 73.7358 44.3484 73.8091 43.4847C73.9243 42.1289 73.2124 40.7417 71.2755 40.6579C69.1712 40.5689 68.2708 42.3958 68.3808 43.537H68.386Z" fill="#FC5003"/>
<path id="Vector_5" d="M62.4708 41.6367C62.8163 41.1342 63.1775 39.8988 62.5807 39.2497C61.984 38.6006 60.7224 38.318 59.3771 39.5219C58.2516 40.5322 58.1679 42.0451 58.9426 42.6156C59.7173 43.1862 61.2773 43.3747 62.4708 41.6367Z" fill="#FC5003"/>
<path id="Vector_6" d="M66.9203 35.2294C67.1401 35.8261 68.3074 36.3444 69.8517 36.2816C71.3697 36.2187 72.2492 35.5225 72.2492 34.6012C72.2492 33.4234 70.6526 32.9628 69.4748 33.0884C67.962 33.2507 66.5329 34.1824 66.9203 35.2294Z" fill="#FC5003"/>
<path id="Vector_7" d="M57.4193 53.844C57.0947 52.975 56.1158 51.8862 55.1369 52.2108C54.0638 52.5667 54.4878 54.8752 54.76 55.362C55.0322 55.8489 55.8122 57.2099 56.9324 56.8801C58.0527 56.5503 57.9637 55.3045 57.4193 53.8387V53.844Z" fill="#FC5003"/>
<path id="Vector_8" d="M54.2209 46.0863C54.3361 45.3901 54.5455 43.8092 54.0063 43.7516C53.3781 43.6888 52.7866 45.0341 52.5406 45.8141C52.216 46.8453 52.1585 48.421 52.7552 48.4733C53.352 48.5257 54.0011 47.3897 54.2209 46.0863Z" fill="#FC5003"/>
<path id="Vector_9" d="M60.6753 61.4448C61.1464 60.8271 62.4551 61.0626 63.3764 61.7536C64.5542 62.6383 64.973 63.5177 64.5856 64.2663C64.0831 65.2347 62.1986 64.8107 61.382 64.104C60.5654 63.3973 59.9791 62.3504 60.6753 61.4448Z" fill="#FC5003"/>
<path id="Vector_10" d="M66.5381 58.1888C66.5381 56.943 67.4961 55.7599 69.5114 55.828C70.7311 55.8699 72.5371 56.7127 72.3434 58.3511C72.1497 59.9739 70.5217 60.869 68.9252 60.5235C67.5484 60.2251 66.5381 59.33 66.5381 58.1888Z" fill="#FC5003"/>
<path id="Vector_11" d="M55.9588 38.3808C56.1002 38.6949 57.4245 37.6218 57.9689 37.0774C58.5134 36.533 59.3247 35.7216 59.2148 35.3394C59.1049 34.9573 57.8014 35.9362 57.3146 36.423C56.8278 36.9098 55.739 37.8887 55.9588 38.3756V38.3808Z" fill="#FC5003"/>
<path id="Vector_12" d="M77.8817 33.4392C77.6252 33.8894 78.2639 34.6484 79.2375 35.3394C80.274 36.0722 81.6926 36.758 82.0067 36.3183C82.4202 35.7372 81.19 34.6379 80.2687 34.0935C79.3474 33.5491 78.0492 33.1461 77.8817 33.4444V33.4392Z" fill="#FC5003"/>
<path id="Vector_13" d="M87.2047 43.5525C86.5922 43.6625 86.5765 44.7827 86.8016 46.2432C86.9325 47.0755 87.1576 48.3685 88.0108 48.3737C88.5553 48.3737 88.6076 47.3058 88.4872 46.2589C88.3092 44.6728 87.7962 43.4531 87.2047 43.5578V43.5525Z" fill="#FC5003"/>
<path id="Vector_14" d="M82.4935 45.1648C83.3205 44.7513 83.5352 43.3536 83.0902 42.1234C82.6453 40.8933 81.2476 39.7888 79.8342 40.6577C78.4209 41.5267 78.9129 43.4269 79.5097 44.1859C80.1064 44.9449 81.4099 45.704 82.4935 45.1648Z" fill="#FC5003"/>
<path id="Vector_15" d="M80.0488 53.5194C80.52 52.2526 80.4467 50.834 79.0699 50.1535C77.6932 49.473 76.1909 50.0227 75.5993 51.2371C74.699 53.0745 75.7093 54.8752 77.0127 55.2521C78.3161 55.6342 79.6353 54.624 80.0541 53.5142L80.0488 53.5194Z" fill="#FC5003"/>
<path id="Vector_16" d="M83.8493 58.0788C84.6345 58.7017 85.6919 57.9165 86.3462 56.9952C86.9953 56.0739 87.2885 54.1057 86.6603 53.6869C85.8123 53.1216 84.8125 53.9382 84.2314 54.9328C83.5561 56.0896 82.9227 57.3407 83.8493 58.0788Z" fill="#FC5003"/>
<path id="Vector_17" d="M79.0595 61.6436C78.5674 61.073 77.6461 60.8427 76.2537 61.5127C74.8613 62.1828 74.5315 63.4286 74.9503 64.1405C75.369 64.8525 76.5887 65.2451 78.0544 64.4546C79.5411 63.6537 79.5201 62.1723 79.0647 61.6436H79.0595Z" fill="#FC5003"/>
<path id="Vector_18" d="M72.2753 67.5798C72.3277 67.2553 70.9719 66.7632 69.6684 66.7109C68.365 66.6585 67.606 66.7632 67.4437 67.1977C67.2814 67.6322 68.6896 68.1766 69.7208 68.2289C70.752 68.2813 72.1654 68.2813 72.2701 67.5798H72.2753Z" fill="#FC5003"/>
<path id="Vector_19" d="M0 119.874V84.98C10.2233 85.8175 17.8398 91.2197 17.8398 102.181C17.8398 113.143 10.5688 119.283 0 119.874ZM5.99372 91.3192V113.336C10.0244 111.614 11.8932 106.458 11.8932 102.375C11.8932 98.2918 10.1239 92.9891 5.99372 91.3192Z" fill="white"/>
<path id="Vector_20" d="M34.6955 85.6187L28.8484 105.819V119.236H22.9489V105.819L17.1017 85.6187H23.0484L25.9013 98.2971L28.7542 85.6187H34.7008H34.6955Z" fill="white"/>
<path id="Vector_21" d="M52.729 119.236H51.6978L42.804 103.118V119.236H36.9045V85.6187H37.9358L46.8295 101.495V85.6187H52.729V119.236Z" fill="white"/>
<path id="Vector_22" d="M84.624 119.236H76.4055L75.4214 113.917H65.0044L63.9417 119.236H55.7233L70.2705 68.5168L84.6187 119.236H84.624ZM74.1127 109.148L70.2129 93.1199L66.313 109.148H74.1075H74.1127Z" fill="white"/>
<path id="Vector_23" d="M108.164 119.11H102.265V103.825L97.8887 114.048L93.5125 103.825V119.11H87.613V85.4929H88.5971L97.8834 103.432L107.222 85.4929H108.154V119.11H108.164Z" fill="white"/>
<path id="Vector_24" d="M118.723 119.11H112.823V85.4929H118.723V119.11Z" fill="white"/>
<path id="Vector_25" d="M135.919 90.4608H131.741V119.115H125.842V90.4608H121.665V85.4983H135.919V90.4608Z" fill="white"/>
<path id="Vector_26" d="M149.723 119.11H138.861V85.4929H149.723V90.4554H144.76V99.4486H149.723V104.118H144.76V113.896H149.723V119.105V119.11Z" fill="white"/>
<path id="Vector_27" d="M5.53305 150.351H2.16714L1.29295 152.261H0.015686L3.90506 143.912L7.6531 152.261H6.35489L5.53305 150.351ZM5.05146 149.236L3.88412 146.566L2.66444 149.236H5.05146Z" fill="#231F20"/>
<path id="Vector_28" d="M23.912 144.823V146.226C23.2263 145.65 22.5196 145.367 21.7868 145.367C20.9806 145.367 20.3001 145.655 19.7452 146.236C19.1904 146.812 18.9129 147.519 18.9129 148.351C18.9129 149.183 19.1904 149.869 19.7452 150.44C20.3001 151.005 20.9859 151.288 21.792 151.288C22.2108 151.288 22.5615 151.22 22.8546 151.084C23.0169 151.016 23.1844 150.927 23.3624 150.811C23.5351 150.696 23.7236 150.555 23.912 150.393V151.822C23.2315 152.204 22.5196 152.397 21.7763 152.397C20.6508 152.397 19.6929 152.005 18.9024 151.22C18.112 150.429 17.7142 149.477 17.7142 148.362C17.7142 147.362 18.044 146.467 18.7088 145.687C19.5254 144.729 20.5775 144.247 21.8705 144.247C22.5772 144.247 23.2577 144.441 23.9173 144.823H23.912Z" fill="#231F20"/>
<path id="Vector_29" d="M29.7226 144.399V149.131C29.7226 149.806 29.8325 150.298 30.0524 150.612C30.3821 151.063 30.8428 151.288 31.4396 151.288C32.0363 151.288 32.5074 151.063 32.832 150.612C33.0518 150.309 33.1618 149.817 33.1618 149.131V144.399H34.35V149.456C34.35 150.283 34.0935 150.963 33.5753 151.502C32.9943 152.099 32.2823 152.398 31.4396 152.398C30.5968 152.398 29.8849 152.099 29.309 151.502C28.796 150.968 28.5343 150.283 28.5343 149.456V144.399H29.7226Z" fill="#231F20"/>
<path id="Vector_30" d="M40.5479 144.399V151.141H42.8564V152.256H39.3596V144.399H40.5479Z" fill="#231F20"/>
<path id="Vector_31" d="M48.7663 145.514V152.256H47.5781V145.514H45.7721V144.399H50.5671V145.514H48.7663Z" fill="#231F20"/>
<path id="Vector_32" d="M55.9379 144.399V149.131C55.9379 149.806 56.0478 150.298 56.2677 150.612C56.5975 151.063 57.0581 151.288 57.6549 151.288C58.2516 151.288 58.7228 151.063 59.0473 150.612C59.2672 150.309 59.3771 149.817 59.3771 149.131V144.399H60.5654V149.456C60.5654 150.283 60.3089 150.963 59.7906 151.502C59.2096 152.099 58.4977 152.398 57.6549 152.398C56.8121 152.398 56.1002 152.099 55.5244 151.502C55.0114 150.968 54.7496 150.283 54.7496 149.456V144.399H55.9379Z" fill="#231F20"/>
<path id="Vector_33" d="M68.2394 148.911L70.6735 152.261H69.2235L66.9778 149.047H66.7632V152.261H65.575V144.404H66.9621C67.9986 144.404 68.7524 144.598 69.2131 144.99C69.7208 145.425 69.9773 145.995 69.9773 146.713C69.9773 147.267 69.8203 147.749 69.501 148.147C69.1817 148.545 68.7629 148.801 68.2394 148.916V148.911ZM66.7632 148.011H67.1401C68.2656 148.011 68.8257 147.582 68.8257 146.723C68.8257 145.917 68.2813 145.519 67.1872 145.519H66.7632V148.011Z" fill="#231F20"/>
<path id="Vector_34" d="M79.316 145.514H76.1647V147.404H79.2218V148.519H76.1647V151.146H79.316V152.261H74.9817V144.404H79.316V145.519V145.514Z" fill="#231F20"/>
<path id="Vector_35" d="M89.9529 148.294C89.9529 147.189 90.3559 146.236 91.1673 145.446C91.9735 144.65 92.9471 144.252 94.0778 144.252C95.2085 144.252 96.156 144.65 96.9569 145.451C97.763 146.252 98.1609 147.215 98.1609 148.335C98.1609 149.456 97.7578 150.424 96.9516 151.209C96.1403 152 95.1614 152.398 94.015 152.398C92.9995 152.398 92.0886 152.047 91.2825 151.345C90.3926 150.571 89.9476 149.55 89.9476 148.294H89.9529ZM91.1464 148.309C91.1464 149.178 91.4395 149.89 92.0206 150.45C92.6016 151.01 93.2717 151.288 94.0307 151.288C94.8525 151.288 95.5487 151.005 96.1193 150.435C96.6847 149.859 96.9674 149.157 96.9674 148.33C96.9674 147.503 96.6847 146.791 96.1298 146.226C95.5749 145.655 94.8839 145.373 94.0621 145.373C93.2403 145.373 92.5545 145.655 91.9892 146.226C91.4238 146.791 91.1464 147.482 91.1464 148.315V148.309Z" fill="#231F20"/>
<path id="Vector_36" d="M106.704 145.514H103.966V147.404H106.61V148.519H103.966V152.261H102.783V144.404H106.709V145.519L106.704 145.514Z" fill="#231F20"/>
<path id="Vector_37" d="M118.733 149.068V152.261H117.55V144.404H118.895C119.555 144.404 120.052 144.451 120.387 144.54C120.728 144.629 121.026 144.802 121.283 145.058C121.733 145.498 121.958 146.058 121.958 146.728C121.958 147.445 121.717 148.016 121.235 148.44C120.754 148.859 120.105 149.073 119.288 149.073H118.738L118.733 149.068ZM118.733 147.969H119.178C120.267 147.969 120.811 147.55 120.811 146.713C120.811 145.875 120.251 145.498 119.126 145.498H118.733V147.969Z" fill="#231F20"/>
<path id="Vector_38" d="M127.491 144.399V151.141H129.799V152.256H126.303V144.399H127.486H127.491Z" fill="#231F20"/>
<path id="Vector_39" d="M139.107 150.351H135.741L134.867 152.261H133.589L137.479 143.912L141.232 152.261H139.934L139.112 150.351H139.107ZM138.62 149.236L137.452 146.566L136.233 149.236H138.62Z" fill="#231F20"/>
<path id="Vector_40" d="M146.236 148.864L143.671 144.399H145.038L146.833 147.54L148.634 144.399H150L147.425 148.864V152.256H146.236V148.864Z" fill="#231F20"/>
<path id="Vector_41" d="M0.554871 123.607H5.74768C6.31303 123.607 6.85744 123.659 7.38091 123.769C7.90437 123.91 8.43831 124.204 8.97225 124.643C9.42243 124.973 9.78886 125.449 10.0715 126.062C10.3647 126.659 10.5112 127.36 10.5112 128.171C10.5112 129.266 10.1396 130.265 9.39103 131.166C8.62153 132.113 7.5013 132.6 6.02512 132.626H2.7168V138.4H0.554871V123.602V123.607ZM2.72727 130.517H5.9466C6.75274 130.501 7.35997 130.244 7.76827 129.742C8.15564 129.25 8.34932 128.711 8.34932 128.109C8.34932 127.611 8.2708 127.193 8.11376 126.852C7.95149 126.549 7.72116 126.303 7.42278 126.13C6.97783 125.837 6.4596 125.701 5.86808 125.711H2.72727V130.511V130.517Z" fill="white" stroke="white" stroke-miterlimit="10"/>
<path id="Vector_42" d="M17.0337 123.607H19.2061V138.405H17.0337V123.607Z" fill="white" stroke="white" stroke-miterlimit="10"/>
<path id="Vector_43" d="M36.2188 134.27C35.9048 135.641 35.3028 136.693 34.4181 137.432C33.5073 138.159 32.4289 138.526 31.1831 138.526C30.0576 138.499 29.1154 138.217 28.3616 137.672C27.5973 137.154 27.0372 136.547 26.6917 135.866C26.587 135.641 26.4928 135.432 26.409 135.228C26.3305 135.018 26.2625 134.757 26.2101 134.437C26.1106 133.841 26.0635 132.699 26.0635 131.009C26.0635 129.318 26.1106 128.14 26.2101 127.559C26.3148 126.978 26.4771 126.507 26.6917 126.146C27.0372 125.46 27.5973 124.853 28.3616 124.319C29.1154 123.779 30.0576 123.502 31.1831 123.486C32.565 123.502 33.6905 123.921 34.5647 124.753C35.4336 125.591 35.9885 126.627 36.2136 127.863H33.9103C33.7324 127.266 33.413 126.758 32.9472 126.339C32.4603 125.941 31.8688 125.732 31.1778 125.722C30.6648 125.737 30.2251 125.842 29.8587 126.036C29.487 126.24 29.1834 126.491 28.9531 126.8C28.6704 127.119 28.482 127.528 28.393 128.03C28.2883 128.559 28.2359 129.553 28.2359 131.009C28.2359 132.464 28.2883 133.453 28.393 133.966C28.4872 134.479 28.6704 134.898 28.9531 135.217C29.1834 135.521 29.487 135.772 29.8587 135.961C30.2251 136.186 30.6648 136.296 31.1778 136.296C32.3975 136.296 33.3136 135.62 33.9156 134.27H36.2188Z" fill="white" stroke="white" stroke-miterlimit="10"/>
<path id="Vector_44" d="M42.2649 123.607H44.4373V131.228H44.4792L50.3787 123.607H52.9541L48.3633 129.443L53.4357 138.405H50.8603L46.9552 131.171L44.4373 133.903V138.41H42.2649V123.612V123.607Z" fill="white" stroke="white" stroke-miterlimit="10"/>
<path id="Vector_45" d="M59.5184 123.607H61.6908V136.296H68.6791V138.405H59.5237V123.607H59.5184Z" fill="white" stroke="white" stroke-miterlimit="10"/>
<path id="Vector_46" d="M75.233 123.607H84.3884V125.716H77.4001V129.951H83.3624V131.94H77.4001V136.296H84.3884V138.405H75.233V123.607Z" fill="white" stroke="white" stroke-miterlimit="10"/>
<path id="Vector_47" d="M90.9475 123.607H96.5015C97.9096 123.623 98.967 123.984 99.679 124.701C100.391 125.423 100.752 126.381 100.752 127.575C100.768 128.182 100.626 128.763 100.328 129.318C100.176 129.58 99.9616 129.831 99.679 130.066C99.3963 130.318 99.0508 130.543 98.6373 130.747V130.789C99.4172 130.998 100.009 131.422 100.412 132.056C100.789 132.71 100.972 133.427 100.972 134.197C100.956 135.474 100.574 136.489 99.8098 137.233C99.056 138.013 98.1138 138.4 96.9883 138.4H90.9475V123.602V123.607ZM93.1199 125.596V129.852H96.2607C97.0564 129.852 97.6374 129.637 98.0143 129.208C98.3965 128.815 98.5849 128.318 98.5849 127.716C98.5849 127.114 98.3965 126.612 98.0143 126.198C97.6427 125.811 97.0564 125.612 96.2607 125.596H93.1199ZM93.1199 131.836V136.29H96.4701C97.2762 136.275 97.8678 136.05 98.2447 135.61C98.6216 135.175 98.8048 134.662 98.8048 134.06C98.8048 133.458 98.6163 132.93 98.2447 132.495C97.8678 132.066 97.2815 131.846 96.4701 131.836H93.1199Z" fill="white" stroke="white" stroke-miterlimit="10"/>
<path id="Vector_48" d="M115.127 135.092H109.693L108.594 138.4H106.296L111.504 123.602H113.321L118.529 138.4H116.236L115.127 135.092ZM114.509 133.108L112.436 126.632H112.399L110.326 133.108H114.514H114.509Z" fill="white" stroke="white" stroke-miterlimit="10"/>
<path id="Vector_49" d="M124.617 123.607H126.789V136.296H133.778V138.405H124.622V123.607H124.617Z" fill="white" stroke="white" stroke-miterlimit="10"/>
<path id="Vector_50" d="M140.332 123.607H142.504V136.296H149.492V138.405H140.337V123.607H140.332Z" fill="white" stroke="white" stroke-miterlimit="10"/>
</g>
</svg>
