<svg xmlns="http://www.w3.org/2000/svg" aria-hidden="true" data-bbox="10.3 17.29 725.62 851.36" data-type="ugc" viewBox="0 0 746.22 872.66"><g fill="none" stroke="#000000" stroke-miterlimit="10"><path stroke-width="8" d="M389.29 425.08c0 8.936-7.244 16.18-16.18 16.18s-16.18-7.244-16.18-16.18 7.244-16.18 16.18-16.18 16.18 7.244 16.18 16.18zM381.32 706.68c-.3 14.59-1.08 52.92-1.33 64.98-.17 8.22-.32 15.74-.46 22.39l-.66 31.97c0 8.05-.28 14.75-.71 20.28l-1.05 9.45c-1.35 9.27-3.16 12.9-4 12.9-.98 0-3.3-5.03-4.67-18.36l-.85-12.37c-.15-3.59-.23-7.55-.23-11.9 0 0-.16-7.76-.44-21.05-.11-5.82-.26-12.72-.42-20.49-.36-17.51-1.44-66.1-1.94-90.35"/><path stroke-width="8" d="M364.61 696.36c-.28-13.2-.56-29.95-.85-43.64-.22-10.78-.45-21.61-.67-32.36-.37-17.51-.73-34.79-1.07-51.25M381.32 707.79c.46-22.25.96-46.02 1.45-69.77.24-11.36.48-22.72.71-33.91.18-8.53.36-16.97.53-25.23"/><path stroke-width="8" d="M362.02 574.59c-.17-8-1-52.28-1.15-59.49-.22-10.27-.42-19.64-.6-27.85-.45-20.69-.75-34.03-.82-35.8-.31-7.72 2.89-11.06 5.98-12.13M384.01 578.88c.38-17.7 1.38-65.28 1.68-79.2.2-9.17.37-17.33.53-24.21.3-13.89.5-22.6.56-24.01.31-7.72-2.89-11.05-5.98-12.14h-.01M373.11 318.89c-50.43 0-65.84-53.24-61.64-100.87 4.2-47.63 44.83-104.13 61.64-138.69 16.81 34.56 57.44 91.06 61.64 138.69 4.2 47.63-11.21 100.87-61.64 100.87ZM280.68 352.7s-26.92 21.4-83.34 18.66c-56.41-2.74-92.56-3.83-118.85 13.69 0 0 22.28-51.74 97.32-80.74"/><path stroke-width="8" d="M324.97 292.02s-80.84 4.17-145.38-31.15c-64.54-35.33-55.5-78.87-113.83-99.41 0 0 51.76-24.65 123.64 5.75"/><path stroke-width="8" d="M318.38 292.17s-73.12-22.27-101.87-58.41c-28.75-36.15-26.29-64.49-27.93-92.42s-24.24-46.01-24.24-46.01 44.36-2.46 82.98 26.29c38.61 28.75 66.22 82.91 66.22 82.91"/><path stroke-width="8" d="M270.28 142.63s-5.08-12.8 4.46-28.41 13.83-33.68 5.93-48.06c0 0 41.77 12.26 62.74 66.72"/><path stroke-width="8" d="M431.86 87.85s-5.34-13.33-29.37-30.72-29.37-39.84-29.37-39.84-5.34 22.45-29.37 39.84c-24.03 17.39-29.37 30.72-29.37 30.72M252.57 285.98S177.9 308.1 120.39 311.8c-57.51 3.7-64.3-21.26-110.09-14.67 0 0 21.33-23.86 79.36-30.84 58.03-6.97 118.42 7.46 118.42 7.46M413.91 301.78s63.73 4.36 57.08 38.33c-3.22 16.42-58.36 36.57-94.22 67.44a5.588 5.588 0 0 1-7.31-.01c-35.29-30.53-91.01-51.02-94.23-67.43-6.65-33.97 57.08-38.33 57.08-38.33M465.54 352.7s26.92 21.4 83.34 18.66c56.41-2.74 92.56-3.83 118.85 13.69 0 0-19.92-51.3-94.95-80.3M421.25 292.02s80.84 4.17 145.38-31.15c64.54-35.33 55.5-78.87 113.83-99.41 0 0-51.76-24.65-123.64 5.75"/><path stroke-width="8" d="M427.84 292.17s73.12-22.27 101.87-58.41c28.75-36.15 26.29-64.49 27.93-92.42 1.64-27.93 24.24-46.01 24.24-46.01s-44.36-2.46-82.98 26.29c-38.61 28.75-66.22 82.91-66.22 82.91"/><path stroke-width="8" d="M475.93 142.63s5.08-12.8-4.46-28.41-13.83-33.68-5.93-48.06c0 0-41.77 12.26-62.74 66.72M493.65 285.98s74.67 22.12 132.18 25.82c57.51 3.7 64.3-21.26 110.09-14.67 0 0-21.33-23.86-79.36-30.84-58.03-6.97-118.42 7.46-118.42 7.46"/><path stroke-width="7.5" d="M383.72 592.36c3.5-2.77 16.45-12.51 20.46-17.17 3.29-3.83 2.36-9.71-1.89-12.44-1.34-.86-2.84-1.68-4.4-2.44-4.75-2.33-10.12-4.21-13.73-5.55-2.74-.98-5.5-1.99-8.26-3.03-2.96-1.12-5.93-2.28-8.86-3.55-13.5-5.8-29.24-14.33-31.02-29.22-1.33-13.49 10.39-23.67 23.06-31.22M379.68 741.4c.11-.1 14.43-11.9 14.54-12 5.89-5.11 11.91-11.51 12.66-18.87.6-7.2-5.67-12.37-12.16-16.19-.92-.54-1.85-1.06-2.76-1.56-4.32-2.5-8.63-5.09-12.89-7.81-.79-.5-1.58-1.01-2.37-1.53-12.96-8.76-30.11-20.47-33.16-35.75-.34-1.63-.3-3.59-.39-5.26-.1-3.19-.21-6.49.52-9.98 2.13-10.07 9.92-17.51 18.01-24.12"/><path stroke-linecap="round" stroke-width="7.5" d="M386.8 474.5c5.75-1.99 16.99-7.7 22.64-9.86M397.45 814.8s-17.72-10.42-20.62-11.96c-.16-.08-.31-.17-.47-.25-8.39-4.6-17.12-7.93-23.49-15.25-1.52-1.81-2.92-4.57-3.19-7.14-.13-1.44-.09-2.79.07-4.2 1.32-8.95 7.53-15.77 14.45-21.93"/></g></svg>